# File produced by Open Asset Import Library (http://www.assimp.sf.net)
# (assimp v3.1.187496374)

mtllib 4 angle images into voxek.obj.mtl

# 8 vertex positions
v  -1.93581 0.1 0.181656
v  -1.86288 0.1 0.115758
v  -1.93581 0.1 0.115758
v  -1.86288 0.1 0.181656
v  -1.86288 0 0.115758
v  -1.93581 8.4599e-18 0.181656
v  -1.93581 0 0.115758
v  -1.86288 8.4599e-18 0.181656

# 20 UV coordinates
vt -3.00356 8.4599e-17 0
vt -1.91398 1 0
vt -3.00356 1 0
vt -1.91398 3.65782e-29 0
vt 1.91398 1 0
vt 3.00356 8.4599e-17 0
vt 3.00356 1 0
vt 1.91398 3.56796e-29 0
vt 45.3437 1 0
vt 43.6354 0 0
vt 45.3437 0 0
vt 43.6354 1 0
vt -25.9682 1 0
vt -24.9899 1 0
vt -25.9682 1.72385e-15 0
vt -24.9899 1.72385e-15 0
vt -1.55285 3.65782e-29 0
vt -2.43685 8.4599e-17 0
vt -1.55285 1 0
vt -2.43685 1 0

# 10 vertex normals
vn 0 0.0254 0
vn -1.40094e-33 -0.0254 1.13431e-18
vn 0.0254 4.98736e-32 -1.06734e-16
vn -0.0254 -4.68156e-32 1.06734e-16
vn 0.0254 4.68156e-32 -1.06734e-16
vn 5.13078e-17 0 -0.0254
vn -5.13078e-17 -0 0.0254
vn 0 2.29207e-17 -0.0254
vn -0.0254 -4.98736e-32 1.06734e-16
vn 0 -2.29207e-17 0.0254

# Mesh 'SketchUp' with 4 faces
g SketchUp
usemtl ID5
f  1//1 2//1 3//1
f  2//1 1//1 4//1
f  5//2 6//2 7//2
f  6//2 5//2 8//2

# Mesh 'SketchUp' with 4 faces
g SketchUp
usemtl ID18
f  8/1/3 2/2/3 4/3/3
f  2/2/3 8/1/3 5/4/3
f  3/5/4 6/6/4 1/7/4
f  6/6/4 3/5/4 7/8/4

# Mesh 'SketchUp_ID17' with 2 faces
g SketchUp_ID17
usemtl ID27
f  7/8/5 3/5/5 6/6/5
f  1/7/5 6/6/5 3/5/5

# Mesh 'SketchUp_ID35' with 2 faces
g SketchUp_ID35
usemtl ID36
f  3/9/6 5/10/6 7/11/6
f  5/10/6 3/9/6 2/12/6

# Mesh 'SketchUp_ID35' with 2 faces
g SketchUp_ID35
usemtl ID45
f  2/12/7 3/9/7 5/10/7
f  7/11/7 5/10/7 3/9/7

# Mesh 'SketchUp' with 4 faces
g SketchUp
usemtl ID58
f  1/13/8 4/14/8 6/15/8
f  8/16/8 6/15/8 4/14/8
f  5/17/9 8/18/9 2/19/9
f  4/20/9 2/19/9 8/18/9

# Mesh 'SketchUp_ID66' with 2 faces
g SketchUp_ID66
usemtl ID67
f  4/14/10 6/15/10 8/16/10
f  6/15/10 4/14/10 1/13/10

